<svg width="29" height="43" viewBox="0 0 29 43" fill="none" xmlns="http://www.w3.org/2000/svg">
<path d="M28.2105 28.2382C28.2124 30.5686 27.6369 32.8632 26.5354 34.9168C25.434 36.9705 23.841 38.7192 21.8986 40.0068C19.9562 41.2943 17.7251 42.0806 15.4046 42.2952C13.0841 42.5099 10.7466 42.1463 8.60094 41.2369C6.45532 40.3275 4.56845 38.9007 3.10894 37.084C1.64944 35.2673 0.66284 33.1172 0.237239 30.826C-0.188363 28.5348 -0.0396804 26.1739 0.670032 23.9542C1.37974 21.7345 2.62831 19.7253 4.30422 18.106L8.92158 22.725C7.81881 23.7649 7.05346 25.1118 6.72453 26.5914C6.39561 28.0711 6.51822 29.6154 7.07654 31.0246C7.63487 32.4338 8.60315 33.643 9.85622 34.4959C11.1093 35.3487 12.5895 35.806 14.1052 35.8084C19.014 35.8084 22.9158 30.7092 21.2961 25.966C20.6122 23.9638 19.0471 22.4087 17.5318 20.9314C13.673 17.1703 9.86387 13.3827 6.05642 9.57364L5.65735 9.17285L5.49173 9.00724L0.635907 4.14981C2.71901 2.98129 4.9461 2.09045 7.26043 1.5C11.1275 5.36872 14.9864 9.23082 18.8849 13.0697L19.9017 14.0717C21.9404 16.0789 23.9873 18.0961 25.7213 20.3782C27.4122 22.6157 28.2105 25.4294 28.2105 28.2382Z" fill="url(#paint0_linear_2107_7642)"/>
<path d="M13.6855 28.1562H11.1367V30.705H13.6855V28.1562Z" fill="#BC1F38"/>
<path d="M17.0741 28.1562H14.5254V30.705H17.0741V28.1562Z" fill="#BC1F38"/>
<path d="M13.6855 24.7891H11.1367V27.3379H13.6855V24.7891Z" fill="#BC1F38"/>
<path d="M17.0741 24.7891H14.5254V27.3379H17.0741V24.7891Z" fill="#BC1F38"/>
<path d="M19.6149 7.97593C21.8174 7.97593 23.6029 6.19045 23.6029 3.98796C23.6029 1.78547 21.8174 0 19.6149 0C17.4124 0 15.627 1.78547 15.627 3.98796C15.627 6.19045 17.4124 7.97593 19.6149 7.97593Z" fill="#BC1F38"/>
<mask id="mask0_2107_7642" style="mask-type:luminance" maskUnits="userSpaceOnUse" x="15" y="0" width="9" height="8">
<path d="M19.6148 7.97593C21.8173 7.97593 23.6028 6.19045 23.6028 3.98796C23.6028 1.78547 21.8173 0 19.6148 0C17.4124 0 15.627 1.78547 15.627 3.98796C15.627 6.19045 17.4124 7.97593 19.6148 7.97593Z" fill="white"/>
</mask>
<g mask="url(#mask0_2107_7642)">
<path d="M15.6289 0H23.6031V7.97593H15.6289V0Z" fill="#BC1F38"/>
</g>
<defs>
<linearGradient id="paint0_linear_2107_7642" x1="20.9914" y1="15.4231" x2="-2.29045" y2="31.3567" gradientUnits="userSpaceOnUse">
<stop offset="0.14" stop-color="#602D8B"/>
<stop offset="1" stop-color="#BC1F38"/>
</linearGradient>
</defs>
</svg>
